<!DOCTYPE svg PUBLIC "-//W3C//DTD SVG 1.1//EN" "http://www.w3.org/Graphics/SVG/1.1/DTD/svg11.dtd">
<!-- Uploaded to: SVG Repo, www.svgrepo.com, Transformed by: SVG Repo Mixer Tools -->
<svg height="800px" width="800px" version="1.1" id="Layer_1" xmlns="http://www.w3.org/2000/svg" xmlns:xlink="http://www.w3.org/1999/xlink" viewBox="0 0 511.994 511.994" xml:space="preserve" fill="#000000">
<g id="SVGRepo_bgCarrier" stroke-width="0"/>
<g id="SVGRepo_tracerCarrier" stroke-linecap="round" stroke-linejoin="round"/>
<g id="SVGRepo_iconCarrier"> <g> <path style="fill:#E6E9ED;" d="M471.941,40.053c-23.874-23.882-50.732-40.054-80.998-40.046c-27.842,0-58.545,13.672-92.466,47.585 c-70.819,70.811-180.957,255.236-135.146,301.062c7.516,7.5,18.718,10.812,32.546,10.812c70.608,0,209.299-86.717,268.532-145.941 C535.222,142.707,517.769,85.872,471.941,40.053z M449.317,198.44c-28.843,28.843-76.92,63.999-125.481,91.748 c-53.35,30.468-99.99,47.952-127.958,47.952c-8.312,0-14.5-1.625-17.453-4.578c-5.109-5.109-5.984-18.983-2.344-37.124 c4.297-21.375,14.703-48.811,30.124-79.326c14.344-28.39,32.437-58.413,52.312-86.818c18.914-27.015,38.46-51.03,55.037-67.615 c27.438-27.43,53.468-41.343,77.389-41.343l0,0l0,0c21.609,0,43.172,11.054,65.921,33.796 c21.812,21.812,32.843,42.483,33.733,63.201c0.5,11.562-2.109,23.172-7.969,35.492C475.848,168.113,464.644,183.121,449.317,198.44 z"/> <polygon style="fill:#E6E9ED;" points="177.488,349.592 162.394,334.499 456.864,40.045 471.941,55.131 "/> <path style="fill:#E6E9ED;" d="M170.644,330.843l-17.75-11.844c0.266-0.391,26.328-39.358,61.608-87.38 c47.515-64.639,88.239-114.06,121.067-146.879c30.39-30.39,59.701-48.999,87.123-55.295c21.858-5.023,34.687-0.117,36.077,0.461 l-8.156,19.71c0,0,0.062,0.031,0.203,0.086c-0.094-0.039-9.108-3.195-25.562,1.07c-28.531,7.422-56.327,30.772-74.607,49.054 C274.088,176.394,171.66,329.311,170.644,330.843z"/> <path style="fill:#E6E9ED;" d="M192.988,359.092l-11.843-17.749c1.531-1.016,154.457-103.427,231.033-179.996 c63.014-63.014,50.358-99.606,50.202-99.958l19.718-8.164c0.578,1.391,5.484,14.226,0.453,36.077 c-6.297,27.421-24.905,56.733-55.295,87.131c-32.812,32.819-82.232,73.545-146.871,121.051 C232.346,332.78,193.378,358.842,192.988,359.092z"/> <path style="fill:#E6E9ED;" d="M155.801,310.937c-4.172,4.156-4.172,10.921,0,15.093c4.156,4.156,10.921,4.156,15.078,0 c4.172-4.172,4.172-10.937,0-15.093C166.723,306.781,159.957,306.781,155.801,310.937z"/> <path style="fill:#E6E9ED;" d="M170.879,326.03c-4.156,4.156-4.156,10.906,0,15.078c4.172,4.172,10.921,4.172,15.093,0 c4.156-4.172,4.156-10.922,0-15.078C181.8,321.858,175.051,321.858,170.879,326.03z"/> <path style="fill:#E6E9ED;" d="M185.972,341.108c-4.172,4.172-4.172,10.921,0,15.077c4.156,4.172,10.922,4.172,15.078,0 c4.171-4.156,4.171-10.905,0-15.077C196.894,336.936,190.128,336.936,185.972,341.108z"/> </g> <polygon style="fill:#CCD1D9;" points="193.503,378.81 133.177,318.483 148.254,303.406 208.597,363.732 "/> <path style="fill:#A0D468;" d="M133.177,318.468L12.492,439.152c-16.656,16.656-16.656,43.688,0,60.343 c16.671,16.655,43.671,16.655,60.342,0L193.503,378.81L133.177,318.468z M35.117,476.871c-4.156-4.156-4.156-10.922,0-15.094 c4.172-4.156,10.921-4.156,15.093,0c4.156,4.172,4.156,10.938,0,15.094C46.038,481.027,39.289,481.027,35.117,476.871z"/> <g> <path style="fill:#8CC153;" d="M163.332,408.997c-4.156-4.172-10.906-4.172-15.078,0c-4.156,4.156-4.172,10.906,0,15.077 L163.332,408.997z"/> <path style="fill:#8CC153;" d="M148.254,424.074c-4.172-4.171-10.921-4.171-15.078,0c-4.172,4.172-4.172,10.922,0,15.078 L148.254,424.074z"/> <path style="fill:#8CC153;" d="M133.177,439.152c-4.172-4.156-10.922-4.156-15.093,0c-4.156,4.172-4.156,10.922,0,15.094 L133.177,439.152z"/> <path style="fill:#8CC153;" d="M118.083,454.246c-4.156-4.172-10.922-4.172-15.078,0c-4.171,4.156-4.171,10.906,0,15.078 L118.083,454.246z"/> <path style="fill:#8CC153;" d="M42.663,408.997c4.172,4.156,10.922,4.156,15.078,0c4.171-4.172,4.171-10.937,0-15.093 L42.663,408.997z"/> <path style="fill:#8CC153;" d="M57.741,393.904c4.171,4.156,10.921,4.156,15.093,0c4.156-4.156,4.156-10.922,0-15.094 L57.741,393.904z"/> <path style="fill:#8CC153;" d="M72.834,378.81c4.172,4.172,10.921,4.172,15.078,0c4.172-4.156,4.172-10.906,0-15.078L72.834,378.81 z"/> <path style="fill:#8CC153;" d="M87.912,363.732c4.172,4.172,10.922,4.172,15.093,0c4.156-4.172,4.156-10.922,0-15.078 L87.912,363.732z"/> </g> </g>
</svg>